<svg viewBox="0 0 12 12" xmlns="http://www.w3.org/2000/svg">
  <path d="M10.523 7.012l1.255-.447c.024-.216.037-.435.037-.657 0-.223-.013-.442-.037-.658l-1.255-.446c-.56-.2-.827-.84-.57-1.38l.57-1.202c-.274-.343-.586-.655-.93-.93l-1.202.57c-.536.257-1.18-.008-1.377-.57L6.565.037C6.35.013 6.13 0 5.908 0c-.223 0-.442.013-.658.037l-.446 1.255c-.2.562-.84.827-1.38.57l-1.202-.57c-.343.275-.655.587-.93.93l.57 1.202c.257.54-.01 1.18-.57 1.38L.037 5.25C.013 5.466 0 5.685 0 5.908c0 .222.013.44.037.657l1.255.447c.56.2.827.84.57 1.38l-.57 1.2c.275.345.587.657.93.93l1.202-.57c.54-.256 1.18.01 1.38.57l.446 1.256c.216.024.435.037.658.037.222 0 .44-.013.657-.037l.447-1.255c.2-.56.84-.827 1.38-.57l1.2.57c.345-.274.657-.586.93-.93l-.57-1.202c-.256-.536.01-1.18.57-1.377zM5.908 8.636c-1.507 0-2.73-1.22-2.73-2.728 0-1.507 1.223-2.73 2.73-2.73S8.636 4.4 8.636 5.908s-1.22 2.728-2.728 2.728z" fill="#000" fill-rule="evenodd"/>
</svg>
